<svg xmlns="http://www.w3.org/2000/svg" width="1412" height="124" viewBox="0 0 1412 124" version="1.1">
	<path d="M 310.522 17.250 C 306.203 26.738, 301.185 37.650, 299.371 41.500 C 296.092 48.461, 263.313 120.319, 262.287 122.799 C 261.870 123.805, 263.276 124.030, 268.529 123.799 L 275.310 123.500 279.601 114 C 281.961 108.775, 285.009 102.025, 286.373 99 C 306.843 53.608, 313.342 39.095, 316.503 31.716 C 318.573 26.885, 320.372 23.060, 320.502 23.216 C 320.632 23.372, 324.873 33.175, 329.926 45 C 334.980 56.825, 344.803 79.438, 351.755 95.250 L 364.396 124 370.198 124 C 373.548 124, 376 123.560, 376 122.960 C 376 122.388, 367.167 101.801, 356.371 77.210 C 345.575 52.620, 334.151 26.425, 330.986 19 C 322.690 -0.456, 322.941 -0, 320.527 -0 C 318.711 -0, 317.149 2.693, 310.522 17.250 M 855.627 12.758 C 850.283 24.350, 825.357 78.751, 810.988 110.179 C 807.800 117.153, 805.449 123.115, 805.762 123.429 C 806.883 124.549, 816.763 123.990, 817.755 122.750 C 818.739 121.519, 821.691 115.167, 835.997 83.500 C 839.972 74.700, 845.351 62.994, 847.950 57.486 C 850.549 51.978, 855.099 41.966, 858.061 35.236 C 861.023 28.506, 863.683 23.004, 863.973 23.008 C 864.263 23.013, 868.747 32.800, 873.939 44.758 C 879.130 56.716, 887.595 76.175, 892.750 88 C 897.905 99.825, 903.280 112.200, 904.695 115.500 C 906.110 118.800, 907.712 122.063, 908.256 122.750 C 909.398 124.193, 921 124.502, 921 123.090 C 921 122.305, 918.027 115.482, 908.761 95.007 C 903.461 83.294, 880.050 30.727, 873.686 16.250 C 867.169 1.424, 866.322 0.001, 864.021 0.008 C 861.767 0.014, 860.877 1.366, 855.627 12.758 M 1348.629 6.750 C 1341.768 20.388, 1294 122.535, 1294 123.569 C 1294 123.856, 1296.967 123.958, 1300.594 123.796 L 1307.188 123.500 1323.605 88 C 1332.634 68.475, 1343.054 45.876, 1346.761 37.779 C 1350.467 29.683, 1353.725 23.051, 1354 23.042 C 1354.275 23.033, 1356.039 26.733, 1357.919 31.263 C 1361.726 40.436, 1378.380 78.277, 1393.231 111.500 L 1398.595 123.500 1404.797 123.798 C 1408.209 123.961, 1411 123.678, 1411 123.168 C 1411 122.658, 1406.785 112.849, 1401.634 101.370 C 1377.275 47.095, 1365.017 19.654, 1360.942 10.282 C 1357.226 1.734, 1356.134 0.059, 1354.263 0.032 C 1352.490 0.007, 1351.319 1.404, 1348.629 6.750 M 1 62.500 L 1 124 6.921 124 C 12.644 124, 12.862 123.903, 13.480 121.093 C 14.203 117.799, 14.040 10.523, 13.303 4.750 L 12.824 1 6.912 1 L 1 1 1 62.500 M 68.320 23.219 C 56.869 35.439, 44.600 48.525, 41.055 52.298 C 36.411 57.240, 34.874 59.520, 35.555 60.457 C 36.075 61.172, 40.267 65.974, 44.872 71.128 C 49.477 76.283, 61.813 90.288, 72.287 102.250 L 91.330 124 98.738 124 C 104.669 124, 106.082 123.713, 105.823 122.560 C 105.645 121.768, 101.225 116.283, 96 110.370 C 90.775 104.457, 79.119 91.268, 70.097 81.060 C 61.076 70.852, 53.034 61.730, 52.227 60.788 C 50.575 58.861, 48.588 61.191, 84.750 22.660 C 95.338 11.379, 104 1.890, 104 1.574 C 104 1.258, 100.657 1, 96.570 1 L 89.141 1 68.320 23.219 M 534 62.500 L 534 124 539.500 124 L 545 124 545.032 74.250 C 545.068 17.780, 544.228 21.216, 553.654 39 C 556.715 44.775, 566.239 62.232, 574.818 77.792 C 587.668 101.099, 590.759 106.033, 592.362 105.792 C 594.203 105.516, 601.147 94.006, 632.203 39.753 C 636.217 32.743, 639.837 27.005, 640.250 27.003 C 640.663 27.002, 641 48.847, 641 75.550 L 641 124.100 646.750 123.800 L 652.500 123.500 652.758 62.250 L 653.015 1 647.218 1 L 641.421 1 637.696 7.750 C 635.647 11.463, 631.460 18.775, 628.391 24 C 625.323 29.225, 617.823 42.275, 611.725 53 C 605.626 63.725, 598.873 75.582, 596.717 79.348 C 594.561 83.115, 592.442 85.815, 592.007 85.348 C 591.202 84.484, 586.715 76.385, 560.393 28.288 L 545.500 1.076 539.750 1.038 L 534 1 534 62.500 M 1086 62.507 L 1086 124.110 1122.750 123.805 L 1159.500 123.500 1159.500 118 L 1159.500 112.500 1129 112 L 1098.500 111.500 1098.500 56.500 L 1098.500 1.500 1092.250 1.202 L 1086 0.905 1086 62.507" stroke="none" fill="#b78f38" fill-rule="evenodd"/>
</svg>