<svg xmlns="http://www.w3.org/2000/svg" width="710" height="594" viewBox="0 0 710 594" version="1.1">
	<path d="M 350.270 1.483 C 341.445 5.319, 340.625 19.169, 348.967 23.483 C 360.295 29.341, 371.626 17.100, 364.974 6.190 C 363.112 3.135, 357.827 -0.054, 354.782 0.039 C 354.077 0.061, 352.046 0.710, 350.270 1.483 M 345.891 74.682 C 334.402 85.718, 319.586 100.941, 313.951 107.500 C 287.806 137.934, 268.443 169.418, 257.840 198.734 C 256.003 203.813, 254.275 207.973, 254 207.978 C 253.725 207.984, 249 204.364, 243.500 199.934 C 215.691 177.538, 183.707 159.458, 153.421 149.015 C 141.174 144.791, 119.633 139, 116.171 139 C 114.370 139, 114.168 140.062, 113.456 153.250 C 112.366 173.448, 112.633 216.070, 113.949 232 C 115.489 250.630, 118.523 270.737, 122.477 288.500 C 124.313 296.750, 125.676 303.643, 125.507 303.817 C 125.338 303.991, 121.892 303.679, 117.850 303.123 C 91.948 299.559, 62.237 299.696, 36.500 303.498 C 24.831 305.221, 2.767 309.908, 0.905 311.059 C -0.088 311.673, 0.594 314.533, 3.916 323.676 C 24.227 379.580, 54.500 426.780, 91 459.455 C 113.227 479.352, 131.311 491.708, 155.500 503.524 C 202.719 526.589, 253.161 534.189, 297.956 524.988 C 308.410 522.840, 330 516.110, 330 514.999 C 330 514.616, 321.788 510.132, 311.750 505.035 C 301.712 499.938, 289.225 493.274, 284 490.226 C 225.366 456.019, 182.385 410.241, 155.153 352.995 C 149.560 341.237, 142.982 324.789, 141.494 318.839 L 140.828 316.179 149.664 318.119 C 204.156 330.085, 261.650 365.605, 295.149 408 C 311.629 428.855, 322.813 447.306, 340.309 482.500 C 346.871 495.700, 352.704 507.078, 353.271 507.784 C 354.033 508.734, 357.356 502.870, 366.022 485.284 C 378.712 459.532, 386.160 446.638, 398.500 429.064 C 436.676 374.695, 493.161 334.922, 554.160 319.459 C 566.796 316.256, 567.399 316.271, 566.529 319.750 C 563.649 331.259, 550.452 360.586, 540.466 377.667 C 518.991 414.398, 488.316 447.310, 451.500 473.124 C 434.211 485.246, 407.804 499.952, 384.542 510.413 C 374.974 514.716, 374.692 514.932, 377.340 515.939 C 408.689 527.858, 447.887 531.752, 483 526.435 C 526.351 519.871, 573.189 498.434, 608 469.225 C 619.049 459.954, 640.062 438.616, 648.155 428.449 C 663.181 409.572, 675.507 390.086, 687.026 367 C 697.477 346.052, 710.419 313.086, 708.819 311.485 C 707.795 310.462, 688.461 305.975, 676.589 304.006 C 650.587 299.692, 626.748 299.264, 596.155 302.562 C 588.815 303.353, 582.679 304, 582.521 304 C 582.362 304, 583.280 299.564, 584.561 294.143 C 593.695 255.495, 597.575 212.628, 596.328 164.143 L 595.675 138.785 590.924 139.416 C 584.028 140.330, 562.783 146.305, 551.360 150.542 C 523.296 160.952, 488.652 180.875, 463.620 201.001 C 458.736 204.928, 454.374 207.771, 453.927 207.320 C 453.479 206.869, 451.695 202.450, 449.961 197.500 C 440.929 171.706, 423.885 142.197, 402.776 115.807 C 392.230 102.623, 370.121 78.902, 361.074 71.064 L 355.072 65.864 345.891 74.682 M 340.914 93.738 C 323.330 111.612, 318.126 117.597, 305.286 134.715 C 288.085 157.648, 274.158 182.994, 266.369 205.542 L 262.805 215.860 275.558 228.680 C 316.798 270.139, 339.970 312.646, 351.505 368 L 353.693 378.500 354.411 373.727 C 355.911 363.762, 362.068 341.659, 367.055 328.343 C 380.927 291.303, 401.545 259.674, 431.351 229.709 L 445.203 215.784 443.501 209.642 C 441.134 201.103, 433.808 183.402, 427.795 171.696 C 413.734 144.323, 390.352 113.393, 364.326 87.738 L 355.437 78.977 340.914 93.738 M 122.790 171.629 C 122.128 219.291, 125.437 257.363, 133.079 290 C 136.981 306.665, 136.527 305.749, 141.266 306.505 C 163.868 310.109, 197.357 322.052, 220.925 334.915 C 236.399 343.360, 243.476 348.175, 265.584 365.300 C 267.566 366.835, 267.198 365.583, 263.086 356.800 C 245.095 318.367, 239.953 273.854, 248.569 231.116 C 249.942 224.305, 250.938 218.634, 250.783 218.515 C 250.627 218.395, 246.225 214.741, 241 210.395 C 221.114 193.856, 199.916 180.174, 177.331 169.300 C 164.273 163.013, 135.383 152.690, 127.290 151.418 L 123.080 150.757 122.790 171.629 M 567.500 155.483 C 545.359 162.443, 522.364 173.238, 500.169 187.092 C 488.930 194.106, 467.943 209.500, 461.273 215.621 L 457.046 219.500 458.942 228.500 C 462.302 244.451, 463.298 257.328, 462.728 277.484 C 461.854 308.444, 455.726 334.938, 442.255 366 C 441.897 366.825, 443.831 365.656, 446.552 363.401 C 475.724 339.237, 510.602 321.192, 546.907 311.481 C 553.833 309.629, 562.074 307.608, 565.221 306.992 C 571.896 305.683, 571.210 307.129, 575.991 284.288 C 583.285 249.443, 586 221.272, 586 180.446 L 586 151 583.750 151.041 C 582.513 151.064, 575.200 153.063, 567.500 155.483 M 259.778 227.553 C 259.456 228.074, 258.214 234.300, 257.018 241.390 C 254.293 257.529, 254.071 281.986, 256.494 298.933 C 261.593 334.591, 277.589 372.310, 297.291 395.135 C 311.944 412.110, 328.225 436.776, 340.694 460.891 C 344.849 468.926, 348.304 475.576, 348.374 475.668 C 349.062 476.584, 347.768 409.031, 346.953 401.500 C 341.118 347.586, 321.352 297.828, 290.546 259.500 C 280.986 247.606, 260.517 226.353, 259.778 227.553 M 437.306 237.759 C 402.302 272.594, 376.553 319.737, 365.623 369 C 360.012 394.291, 359.748 397.183, 359.327 438 L 358.930 476.500 366.282 462.500 C 378.019 440.150, 392.757 417.694, 406.853 400.687 C 420.220 384.559, 423.446 379.762, 430.515 365.500 C 434.605 357.250, 439.745 344.989, 441.939 338.252 C 448.709 317.460, 453.010 290.963, 452.992 270.144 C 452.980 255.899, 449.621 228, 447.919 228 C 447.475 228, 442.699 232.391, 437.306 237.759 M 60.500 310.665 C 43.335 312.078, 16.891 316.213, 14.137 317.916 C 13.225 318.479, 13.787 321.053, 16.356 328.085 C 33.520 375.064, 64.393 422.064, 98.307 452.843 C 147.201 497.217, 208.291 521.065, 267 518.697 C 280.260 518.162, 292.226 516.527, 302.426 513.856 L 306.353 512.828 292.426 505.588 C 269.903 493.878, 254.245 483.712, 234.612 468.050 C 186.539 429.701, 151.404 380.142, 132.486 324 L 129.284 314.500 120.892 313.282 C 101.452 310.461, 76.254 309.369, 60.500 310.665 M 613.500 310.575 C 611.300 310.787, 602.710 311.694, 594.411 312.590 L 579.323 314.220 577.052 321.360 C 573.494 332.547, 565.268 352.397, 558.916 365.120 C 529.077 424.889, 478.950 473.982, 414.254 506.796 C 408.069 509.933, 403.007 512.747, 403.004 513.050 C 402.997 513.930, 414.173 515.996, 427.335 517.548 C 484.311 524.267, 544.131 506.054, 596 466.197 C 617.434 449.727, 644.854 418.467, 661.977 390.982 C 674.866 370.292, 697.149 322.436, 695.678 318.603 C 695.226 317.425, 680.199 314.124, 665.500 311.975 C 658.242 310.914, 620.525 309.898, 613.500 310.575 M 349.449 570.517 C 345.335 572.594, 343 576.870, 343 582.327 C 343 590.613, 351.402 595.948, 359.272 592.660 C 365.555 590.035, 368.133 581.419, 364.484 575.241 C 361.336 569.913, 354.746 567.842, 349.449 570.517" stroke="none" fill="#b78f38" fill-rule="evenodd"/>
</svg>